<?xml version="1.0" encoding="utf-8"?>
<!-- Generator: Adobe Illustrator 19.0.0, SVG Export Plug-In . SVG Version: 6.00 Build 0)  -->
<svg version="1.1" id="layer" xmlns="http://www.w3.org/2000/svg" xmlns:xlink="http://www.w3.org/1999/xlink" x="0px" y="0px"
	 viewBox="-153 -46 652 652" style="enable-background:new -153 -46 652 652;" xml:space="preserve">
<style type="text/css">
	.st0{fill:#FFFFFF;}
	.st1{fill:#B2173A;}
</style>
<g id="Swiss_Army">
	<path d="M1,398.5l1.3,12.7H0.1c-1-4.2-2.6-6.5-4.2-7.5c-1.6-1.3-3.6-2-6.2-2c-2.9,0-5.2,1.3-5.2,4.9c0,2.9,1.6,3.9,5.2,6.2l4.9,2.9
		c5.5,3.3,8.8,5.9,8.8,11.1c0,6.5-5.2,10.8-12.7,10.8c-1.6,0-3.9-0.3-5.5-1c-2.3-0.7-3.3-1.3-3.6-1.3c-1,0-1,1-1,2h-2l-1.6-13h2
		c1.3,2.9,2.3,5.2,3.3,6.2c2,2.3,4.9,3.6,8.5,3.6c3.9,0,6.2-2.6,6.2-5.9c0-3.6-2.6-5.2-6.8-7.8l-5.2-3.3c-3.9-2.3-6.2-4.9-6.2-9.1
		c0-5.5,3.9-10.1,11.1-10.1c1.3,0,3.3,0.3,4.9,1c2.3,0.7,3.3,1.3,3.9,1.3s1-1,1.3-2H1L1,398.5z M61.4,399.2v2c-2,0.3-3.6,1-4.2,3.3
		L45.4,438h-2l-8.2-22.8l-7.8,22.5h-2L16,412.8c-2-5.2-3.6-8.8-4.2-9.8c-0.7-1-1.6-1.6-3.3-2H8.2v-2h14.7v2c-1.6,0-2.3,0.3-2.6,0.3
		c-0.7,0.3-1,0.7-1,1.3c0,0.7,0.3,1.3,0.7,2.3l7.8,20.9l5.5-17L31,404c-0.3-1-1-2-2-2.3c-0.7-0.3-1.3-0.3-2.3-0.3v-2h15v2.3h-1.3
		c-2.6,0-2.9,1-2.9,1.6s0.3,1.3,0.7,2.3l7.2,20.5l6.2-18.6c0.3-1,0.7-2.6,0.7-3.9c0-1-0.3-1.3-1.3-1.6c-0.7-0.3-1-0.3-2.3-0.3v-2
		h12.7L61.4,399.2z M78.3,432.1c0,1.3,0.7,2,2,2.3c0.7,0.3,1.6,0.7,2.6,0.7v2H67.6v-2c0.7,0,2.3-0.7,2.6-1c1-0.7,1.6-1,1.6-2.3V404
		c0-2-2.6-2.9-4.2-3.3v-2h15.3v2c-2,0.3-4.2,1-4.2,3.3v28H78.3z M115.8,398.5l1.3,12.7h-2.3c-1-4.2-2.6-6.5-4.2-7.5
		c-1.6-1.3-3.9-2-6.2-2c-2.9,0-5.2,1.3-5.2,4.9c0,2.9,1.6,3.9,5.2,6.2l4.9,2.9c5.5,3.3,8.8,5.9,8.8,11.1c0,6.5-5.2,10.8-12.7,10.8
		c-1.6,0-3.9-0.3-5.5-1c-2.3-0.7-3.3-1.3-3.9-1.3c-1,0-1,1-1,2h-2l-1.6-13h2c1.3,2.9,2.3,5.2,3.3,6.2c2,2.3,4.9,3.6,8.5,3.6
		s6.2-2.6,6.2-5.9c0-3.6-2.6-5.2-6.8-7.8l-5.2-3.3c-3.9-2.3-6.2-4.9-6.2-9.1c0-5.5,3.9-10.1,11.1-10.1c1.3,0,3.3,0.3,4.9,1
		c2.3,0.7,3.3,1.3,3.9,1.3c0.7,0,1-1,1-2h2V398.5z M151.7,398.5l1.3,12.7h-2.3c-1-4.2-2.6-6.5-4.2-7.5c-1.6-1.3-3.9-2-6.2-2
		c-2.9,0-5.2,1.3-5.2,4.9c0,2.9,1.6,3.9,5.2,6.2l4.9,2.9c5.5,3.3,8.8,5.9,8.8,11.1c0,6.5-5.2,10.8-12.7,10.8c-1.6,0-3.9-0.3-5.5-1
		c-2.3-0.7-3.3-1.3-3.6-1.3c-1,0-1,1-1.3,2h-2l-1.6-13h1.6c1.3,2.9,2.3,5.2,3.3,6.2c2,2.3,4.9,3.6,8.5,3.6c3.9,0,6.2-2.6,6.2-5.9
		c0-3.6-2.6-5.2-6.8-7.8l-5.2-3.3c-3.9-2.3-6.2-4.9-6.2-9.1c0-5.5,3.9-10.1,11.1-10.1c1.3,0,3.3,0.3,4.9,1c2.3,0.7,3.3,1.3,3.9,1.3
		s1-1,1.3-2h2V398.5z M192.5,423h11.7l-6.2-15L192.5,423z M200,398.5l13.7,31.6c1,2.3,1.6,3.3,2.3,3.9c0.7,0.3,1.6,1,3.3,1v2h-14.3
		v-2c2.3-0.3,3.6-0.3,3.6-1.6c0-0.3,0-1-0.3-1.3l-2.3-5.5h-15l-1.6,4.2c-0.3,1-0.7,1.6-0.7,2.3c0,2,1.6,2,3.6,2.3v2h-13v-2
		c1.6-0.3,2.9-0.7,3.6-1.3c0.7-1,1.3-1.6,3.3-6.2l11.7-29h2.3L200,398.5z M240.7,403.1c-0.3,0-1.6,0-3.9,0.3v16h6.5
		c4.9-0.3,6.8-2.9,6.8-8.5C249.8,404,245.6,403.1,240.7,403.1 M260.6,437h-9.1l-8.2-14.3h-6.5v9.1c0,1.3,1,2.9,4.6,3.3v2h-16v-2
		c1,0,2-0.3,2.9-0.7s2-1.3,2-2.6V405c0-2.6-2.6-3.6-5.2-3.6v-2h18.3c6.2,0,14,4.2,14,11.4c0,3.6-1.6,9.1-7.8,11.1l6.2,10.1
		c1,1.6,2.3,2.9,4.9,2.9C260.6,435,260.6,437,260.6,437z M303.7,399.2h11.4v2c-2.9,0.3-4.2,1.3-4.2,4.6v24.5c0,3.6,0.7,4.2,4.2,4.6
		v2h-15.3v-2c3.9-0.3,4.2-1.3,4.2-5.2v-21.8l-13.7,29H289L275.6,408v19.9c0,2.9,0.3,4.6,1.3,5.5c0.7,0.7,1.6,1,3.6,1.3v2h-13.7v-2
		c2-0.3,2.9-1,3.6-1.6c0.3-0.7,1-1.6,1-5.2v-22.5c0-1.6,0-2.9-1-3.6c-0.7-0.7-1.6-0.7-3.3-1v-2.3h11.4l12.1,27.1L303.7,399.2
		L303.7,399.2z M359.4,399.2v2.3c-1.3,0-2.3,0.3-3.3,1c-1.3,1-2.9,2.6-4.6,5.2l-8.2,12.4v10.4c0,2.6,0.3,3.3,1,3.6
		c0.3,0.3,1.3,1,4.6,1v2.3h-17v-2c3.3-0.3,3.9-1,4.2-1.3s0.7-1.3,0.7-3.9V421l-7.2-10.4c-2.6-3.6-4.2-5.9-5.2-7.2
		c-1-1-2-1.3-3.9-1.6v-2.3h16.3v2.3h-1c-1.3,0-2.9,0.3-2.9,1.6c0,0.7,0.3,1.3,1,2l7.5,11.1l7.5-11.1c0.3-0.7,0.7-1.3,0.7-2
		c0-0.7-0.3-1-1.3-1c-1-0.3-2.3-0.3-2.3-0.3v-2.3h13.4L359.4,399.2z"/>
</g>
<path id="Victorinox" d="M442.9,337.5l15.7,23.5c1.6,2.3,3.3,3.9,4.9,4.9c1,0.7,3.3,1.6,4.6,1.6v2.9h-26.1v-2.9c0,0,2.6-0.3,3.9-1
	c1.6-0.7,2-2.6,0.7-4.2L436,346.7l-12.1,16c-2.3,2.6,0,4.6,2.6,4.9v2.9h-19.2v-2.9c4.2-0.7,6.2-2.6,8.2-5.2l16.3-21.8l-14.7-21.5
	c-2.3-3.6-5.5-5.5-9.8-5.5v-2.9h26.7v2.9c-2.6,0.3-7.2,1.3-5.2,4.9L438,332l10.4-13.7c2.3-2.6,0.7-4.6-2.9-4.9v-2.9h19.2v2.9
	c-2.6,0.3-4.6,1.6-6.5,3.3 M355.8,339.5c0,12.4,3.9,26.1,16.3,26.1c12.7,0,16-13.7,15.7-26.4c-0.3-12.1-2.6-24.8-15.7-24.8
	C358.4,314.4,355.8,327.4,355.8,339.5 M400.8,340.5c-0.3,16-11.1,31.3-28.4,31.3c-17.6,0-29-14-29.3-31.6c-0.3-16.3,11.1-32,29-32
	S401.2,324.2,400.8,340.5 M324.8,370.1h-2.3l-38.2-44.3v36.5c0,1.6,1,2.9,2.6,3.9c1.6,1,2.9,1,4.2,1.3v2.9h-20.5v-2.9
	c1.3-0.3,2.3-0.3,3.3-1c2-0.7,3.6-2.3,3.6-4.2v-43.4c-1.3-2.9-4.9-5.9-8.2-5.9v-2.9h15.7l33.6,39.5v-31.3c0-3.3-4.2-5.2-6.8-5.2
	v-2.9h20.5v2.9c-4.2,0.3-7.5,1.3-7.5,4.9V370.1L324.8,370.1z M247.6,362.3c0,2,1,2.9,2.9,3.9c1.3,0.7,2.6,1,3.9,1.3v2.9h-24.8v-2.9
	c1.3-0.3,3.9-1,4.6-1.3c1.6-1,2.9-1.6,2.9-3.9V318c0-3.3-4.2-4.6-7.5-4.9v-2.9h24.8v2.9c-3.6,0.7-6.8,1.3-6.8,5.2V362.3L247.6,362.3
	z M185.3,316c-0.7,0-2.9,0.3-6.5,0.7v25.8h10.4c7.5-0.7,10.8-4.6,10.8-13.7C200.3,317.3,193.4,316,185.3,316 M217.6,370.1h-15
	l-13-22.5h-10.4v14.7c0,2.3,1.6,4.2,7.5,4.9l0.3,2.9h-25.4v-2.9c1.3,0,3.3-0.3,4.6-1c1.6-0.7,2.9-2.3,2.9-4.2v-43
	c0-3.9-4.2-5.5-8.2-5.9v-2.9h29c10.1,0,22.5,6.8,22.5,18.3c0,5.9-2.6,14.7-12.4,17.6l10.1,16.3c1.6,2.6,3.9,4.2,7.8,4.6
	C217.9,366.9,217.6,370.1,217.6,370.1z M103.4,339.8c-0.3,12.4,3.9,26.1,16,26.1c12.7,0,16-13.7,15.7-26.4
	c-0.3-12.1-2.3-24.8-15.7-24.8S103.8,327.4,103.4,339.8 M148.4,340.8c-0.3,16-11.1,31.3-28.4,31.3c-17.6,0-29-14-29.3-31.6
	c-0.3-16.3,11.1-32,29-32S148.8,324.2,148.4,340.8 M63.3,316.3V362c0,2.3,1.6,3.9,3.9,4.6c1.3,0.7,2.9,0.7,4.2,1v2.9H46v-2.9
	c1.3-0.3,2.6-0.3,4.2-1c2-0.7,3.3-2.3,3.3-4.6l-0.3-45.3h-8.2c-4.9,0-6.2,2-7.2,4.2c-0.7,2-1,3.6-1,5.5h-3.6v-15.7h49.9v15.7h-3.6
	c-0.3-2-0.7-4.6-1.3-6.2c-1.3-2.3-2.9-3.3-5.2-3.3h-9.8L63.3,316.3z M22.6,310.1l0.3,16.3h-3.3c-1-2.6-1.6-5.9-3.3-7.8
	c-2.3-2.9-5.2-3.9-10.1-3.9c-15.7,0-17,15.7-17,25.4c0,10.1,2,26.1,18.3,25.8c4.9,0,12.4-2.9,17.6-9.5l0.7-0.7l3.3,2.6l-0.3,0.3
	c-5.5,10.1-16.3,13.7-23.2,13.7c-19.2,0-29-17.3-29-31.3c0-11.7,7.2-31.6,25.8-31.6c7.2,0,12.4,1.6,17,4.2l0.7-2.6h2.6L22.6,310.1z
	 M-41.7,362.3c0,2,1,2.9,2.9,3.9c1.3,0.7,2.6,1,3.9,1.3v2.9h-24.8v-2.9c1.3-0.3,3.6-1,4.6-1.3c1.6-1,2.9-1.6,2.9-3.9V318
	c0-3.3-4.2-4.6-7.5-4.9v-2.9h24.8v2.9c-3.6,0.7-6.8,1.3-6.8,5.2C-41.7,318.3-41.7,362.3-41.7,362.3z M-98.4,355.5l13.7-37.5
	c1-2.6,0-4.2-4.9-4.9v-3.3h20.5v3.3c-3.6,0.3-6.5,1-8.2,5.5l-20.2,53.8h-4.6l-22.8-54.1c-2-4.6-5.9-4.9-7.2-4.9v-3.3h24.1v3.3
	c-4.2,0.3-4.9,2.6-4.6,3.9L-98.4,355.5L-98.4,355.5z"/>
<g id="Shield">
	<path class="st0" d="M118.1,180.3c0-16.3-2.6-32.3-7.5-47v-0.3c3.9-2,11.7-5.9,19.6-10.1c8.5-4.6,17.9-8.8,22.5-9.8
		c6.2-1.3,11.7,0.7,15.3,5.9c3.6-5.2,9.1-7.2,15.3-5.9c4.9,1,14,5.2,22.5,9.8c7.8,4.2,15.7,8.2,19.6,10.1v0.3
		c-4.9,15-7.5,30.7-7.5,47c0,15.7,2.9,30.7,7.5,45v0.3c-26.1,9.8-42.1,21.5-57.1,37.5H168c-15-15.7-31-27.7-57.1-37.5v-0.3
		C115.2,211,118.1,196,118.1,180.3"/>
	<path class="st1" d="M111.6,225c28.4,10.4,43.7,23.8,56.4,36.8c17-17.6,33.6-28.4,56.4-36.8c-4.9-16-7.2-30.7-7.2-44.7
		c0-15.3,2.6-31.3,7.5-46.6c-3.6-2-11.1-5.5-18.9-9.8c-9.8-5.2-18.3-8.8-22.5-9.8c-6.2-1.3-11.4,0.7-14.3,5.5l-1,1l-0.7-1.3
		c-2.9-4.6-8.5-6.8-14.3-5.5c-4.2,1-12.7,4.6-22.2,9.8c-8.2,4.2-15.3,8.2-18.9,9.8c4.6,15.7,7.2,31.3,7.2,47
		C119.1,194.4,116.5,208.7,111.6,225 M168.7,263.5h-1.3c-12.7-13-28.4-26.7-56.7-37.2h-0.3l-0.3-1V225c4.9-16.3,7.2-30.7,7.2-44.7
		c0-15.7-2.6-31.3-7.5-46.6v-0.3l0.3-1h0.3c3.6-1.6,11.1-5.5,19.6-10.1c9.8-5.2,18.6-9.1,22.8-9.8c6.2-1.3,12.1,0.7,15.7,5.2
		c3.6-4.6,9.1-6.5,15.7-5.2c4.2,1,12.7,4.6,22.8,9.8c8.5,4.6,16,8.5,19.6,10.1h0.3l0.3,1v0.3c-4.9,15.7-7.5,31.3-7.5,46.6
		c0,14,2.3,28.7,7.5,44.7v0.3l-0.3,1h-0.3C202.6,234.8,185.9,245.6,168.7,263.5z M198.3,130.8c-6.5-3.3-13.4-6.5-17-7.2
		c-6.8-1.3-12.4,4.2-13,7.5l-0.3,0.7l-0.3-0.7c-1-3.3-6.2-8.8-13-7.5c-3.6,0.7-10.4,3.9-17,7.2c-6.5,3.3-12.7,6.5-15.7,7.8
		c3.9,12.4,5.9,25.1,5.9,38.8h9.1v-6.8h21.2v-21.2h18.6v21.2H198v6.8h9.8c0-13.7,2-26.4,5.9-38.8C211,137.3,204.8,134,198.3,130.8
		 M168,249.2c12.7-12.1,28.4-23.5,45.7-29.3c-1.6-5.9-3.6-14-4.6-22.2c-1-7.5-1.3-14.7-1.3-15.3H198v6.8h-21.2v21.2h-18.6v-21.2H137
		v-6.8h-9.1c-0.3,12.4-2.3,26.4-5.5,37.5C139.6,225.7,155.3,237.1,168,249.2"/>
</g>
</svg>
